<?xml version="1.0" encoding="UTF-8" standalone="no"?>
<svg width="79px" height="79px" viewBox="0 0 79 79" version="1.1" xmlns="http://www.w3.org/2000/svg" xmlns:xlink="http://www.w3.org/1999/xlink" xmlns:sketch="http://www.bohemiancoding.com/sketch/ns">
    <!-- Generator: Sketch 3.3.2 (12043) - http://www.bohemiancoding.com/sketch -->
    <title>draw</title>
    <desc>Created with Sketch.</desc>
    <defs></defs>
    <g id="Page-1" stroke="none" stroke-width="1" fill="none" fill-rule="evenodd" sketch:type="MSPage">
        <g id="iPhone-6-Plus" sketch:type="MSArtboardGroup" transform="translate(-379.000000, -2065.000000)" fill="#DE125F">
            <g id="draw" sketch:type="MSLayerGroup" transform="translate(379.220430, 2065.500000)">
                <path d="M70.9191747,36.7347368 C70.0432897,36.7347368 69.3324266,37.4421053 69.3324266,38.3136842 L69.3324266,75.2778947 L3.17349608,75.2778947 L3.17349608,9.05684211 L44.5981982,9.05684211 C45.4740831,9.05684211 46.1849462,8.34947368 46.1849462,7.47789474 C46.1849462,6.60631579 45.4740831,5.89894737 44.5981982,5.89894737 L1.58674804,5.89894737 C0.710863121,5.89894737 0,6.60631579 0,7.47789474 L0,76.8568421 C0,77.7284211 0.710863121,78.4357895 1.58674804,78.4357895 L70.9191747,78.4357895 C71.7950596,78.4357895 72.5059227,77.7284211 72.5059227,76.8568421 L72.5059227,38.3136842 C72.5059227,37.4421053 71.7950596,36.7347368 70.9191747,36.7347368 L70.9191747,36.7347368 Z M70.6102877,3.77263158 C66.7767044,1.16421053 64.0601918,0 61.7985469,0 C59.8542517,0 58.2738506,0.867368421 57.1060041,2.56842105 L56.8055798,2.95578947 C56.4205289,3.44631579 55.7794827,4.26315789 55.0813136,5.21473684 L35.6679802,33.4042105 C35.5093054,33.6421053 35.4162162,33.9178947 35.3992909,34.2 L34.4028131,52.3957895 C34.3731938,52.92 34.6101482,53.4252632 35.0311654,53.7431579 C35.310433,53.9515789 35.6468236,54.0610526 35.9874455,54.0610526 C36.16093,54.0610526 36.3365301,54.0315789 36.5036675,53.9747368 L54.6454868,47.7621053 C54.964952,47.6526316 55.2399884,47.4442105 55.4325138,47.1684211 L74.1519093,20.2821053 L75.1018425,18.9410526 C75.8613659,17.8505263 76.4579831,17.0084211 76.7837954,16.5536842 L77.0482534,16.1789474 C80.5052485,11.1473684 75.7640453,7.29263158 70.6102877,3.77263158 L70.6102877,3.77263158 Z M37.7011334,50.2252632 L38.4754664,36.0547368 C39.6898576,36.6147368 41.0925429,37.6021053 41.557989,38.8884211 C41.7483987,39.4105263 42.2053822,39.7957895 42.7491078,39.9031579 C42.7808428,39.9094737 45.7300785,40.52 46.6800116,42.9347368 C46.8936937,43.4778947 47.3929904,43.8589474 47.974798,43.9284211 C47.993839,43.9284211 49.6482883,44.1831579 51.2752339,45.5789474 L37.7011334,50.2252632 L37.7011334,50.2252632 Z M53.9557803,43.7473684 C52.2378611,42.0252632 50.3570357,41.2842105 49.2632374,40.9831579 C47.9303691,38.5178947 45.4888928,37.4421053 44.1941064,37.0273684 C43.1024237,34.9452632 41.0481139,33.7494737 39.6898576,33.1452632 L56.6765243,8.41263158 L57.1271607,7.78947368 C59.3866899,8.10315789 62.541145,9.48 65.4607614,11.4694737 C68.4205754,13.4905263 70.8683987,15.9284211 71.9664284,17.8989474 L53.9557803,43.7473684 L53.9557803,43.7473684 Z M74.4332926,14.3894737 L74.1921069,14.7284211 C74.1180587,14.8336842 74.0270851,14.9621053 73.9276489,15.1031579 C72.4318745,13.0126316 70.0940657,10.8042105 67.2527289,8.86315789 C64.5129439,6.99789474 61.6843011,5.66105263 59.2195525,5.00842105 C59.2449404,4.97894737 59.2830224,4.92842105 59.3062947,4.89894737 C59.5326707,4.61052632 59.6828829,4.41684211 59.7188492,4.36 C60.2985411,3.51789474 60.9205464,3.15789474 61.7985469,3.15789474 C63.3387504,3.15789474 65.6342459,4.21052632 68.8162046,6.37894737 C75.8296309,11.1663158 75.5376693,12.7831579 74.4332926,14.3894737 L74.4332926,14.3894737 Z" id="Fill-103" sketch:type="MSShapeGroup"></path>
            </g>
        </g>
    </g>
</svg>