<?xml version="1.0" encoding="UTF-8" standalone="no"?>
<svg width="76px" height="76px" viewBox="0 0 76 76" version="1.1" xmlns="http://www.w3.org/2000/svg" xmlns:xlink="http://www.w3.org/1999/xlink" xmlns:sketch="http://www.bohemiancoding.com/sketch/ns">
    <!-- Generator: Sketch 3.3.2 (12043) - http://www.bohemiancoding.com/sketch -->
    <title>draw copy</title>
    <desc>Created with Sketch.</desc>
    <defs></defs>
    <g id="Page-1" stroke="none" stroke-width="1" fill="none" fill-rule="evenodd" sketch:type="MSPage">
        <g id="iPhone-6-Plus" sketch:type="MSArtboardGroup" transform="translate(-294.000000, -2069.000000)" fill="#DE125F">
            <g id="draw-copy" sketch:type="MSLayerGroup" transform="translate(294.220430, 2069.500000)">
                <path d="M66.7233734,27.8086707 L55.2704697,43.3973452 L36.2529602,50.7144762 L36.2529602,30.3537604 L50.4984283,9.35677351 C50.4984283,9.35677351 44.8013635,2.89894737 44.5981982,2.89894737 L1.58674804,2.89894737 C0.710863121,2.89894737 2.27373675e-13,3.60631579 2.27373675e-13,4.47789474 L2.27373675e-13,73.8568421 C2.27373675e-13,74.7284211 0.710863121,75.4357895 1.58674804,75.4357895 L70.9191747,75.4357895 C71.7950596,75.4357895 72.5059227,74.7284211 72.5059227,73.8568421 L72.5059227,35.3136842 C72.5059227,35.2754361 66.7233734,27.8086707 66.7233734,27.8086707 Z" id="Fill-103" sketch:type="MSShapeGroup"></path>
                <path d="M37.7011334,47.2252632 L38.4754664,33.0547368 C39.6898576,33.6147368 41.0925429,34.6021053 41.557989,35.8884211 C41.7483987,36.4105263 42.2053822,36.7957895 42.7491078,36.9031579 C42.7808428,36.9094737 45.7300785,37.52 46.6800116,39.9347368 C46.8936937,40.4778947 47.3929904,40.8589474 47.974798,40.9284211 C47.993839,40.9284211 49.6482883,41.1831579 51.2752339,42.5789474 L37.7011334,47.2252632 L37.7011334,47.2252632 Z" id="Path" sketch:type="MSShapeGroup"></path>
                <path d="M53.9557803,40.7473684 C52.2378611,39.0252632 50.3570357,38.2842105 49.2632374,37.9831579 C47.9303691,35.5178947 45.4888928,34.4421053 44.1941064,34.0273684 C43.1024237,31.9452632 41.0481139,30.7494737 39.6898576,30.1452632 L56.6765243,5.41263158 L57.1271607,4.78947368 C59.3866899,5.10315789 62.541145,6.48 65.4607614,8.46947368 C68.4205754,10.4905263 70.8683987,12.9284211 71.9664284,14.8989474 L53.9557803,40.7473684 L53.9557803,40.7473684 Z" id="Path" sketch:type="MSShapeGroup"></path>
                <path d="M74.4332926,11.3894737 L74.1921069,11.7284211 C74.1180587,11.8336842 74.0270851,11.9621053 73.9276489,12.1031579 C72.4318745,10.0126316 70.0940657,7.80421053 67.2527289,5.86315789 C64.5129439,3.99789474 61.6843011,2.66105263 59.2195525,2.00842105 C59.2449404,1.97894737 59.2830224,1.92842105 59.3062947,1.89894737 C59.5326707,1.61052632 59.6828829,1.41684211 59.7188492,1.36 C60.2985411,0.517894737 60.9205464,0.157894737 61.7985469,0.157894737 C63.3387504,0.157894737 65.6342459,1.21052632 68.8162046,3.37894737 C75.8296309,8.16631579 75.5376693,9.78315789 74.4332926,11.3894737 L74.4332926,11.3894737 Z" id="Path" sketch:type="MSShapeGroup"></path>
            </g>
        </g>
    </g>
</svg>